<svg xmlns="http://www.w3.org/2000/svg" viewBox="0 0 213.58 185.42"><defs><style>.cls-1{fill:none;stroke:#000;stroke-linecap:round;stroke-linejoin:round;stroke-width:0.5px;}</style></defs><g id="Capa_2" data-name="Capa 2"><g id="Capa_3" data-name="Capa 3"><path class="cls-1" d="M213.27,147.21s-19.75-2.57-31.22,1.82c-8.9,3.4-43.28,6-47.67-18-4.73-25.85,18.87-85.41,30.14-85.44,7.85,0,3.12,7.63-2.07,21.66S156,88.62,156,88.62"/><path class="cls-1" d="M191.68,72.6s-.78-3.87,2.91-17.24c2.68-9.73,2.89-11.59-2.39-13.51-13.73-5-23.95,56.23-23.95,56.23"/><path class="cls-1" d="M168.25,51s4.95-11.33,11.44-10.74,4.51,5.86,4.51,5.86"/><path class="cls-1" d="M165.05,115.69s2.84-7.2,7.56-9.44,8.85-9.56,9.73-17.47,6.18-18.88,14.1-16.17-4.71,41.66-4.71,41.66"/><line class="cls-1" x1="213.33" y1="108.14" x2="193.52" y2="108.84"/><path class="cls-1" d="M6.16,149.77S35.52,147.2,47,151.59c8.9,3.4,43.28,6,47.67-18,4.72-25.85-18.87-85.41-30.15-85.44-7.84,0-3.11,7.63,2.07,21.66S73,91.18,73,91.18"/><path class="cls-1" d="M37.35,75.16s.78-3.87-2.9-17.24c-2.69-9.73-2.89-11.59,2.39-13.51,13.73-5,23.95,56.23,23.95,56.23"/><path class="cls-1" d="M60.79,53.57S55.84,42.24,49.35,42.83s-4.51,5.86-4.51,5.86"/><path class="cls-1" d="M64,118.25s-2.83-7.2-7.55-9.44-8.85-9.56-9.74-17.47S40.51,72.46,32.6,75.17s4.71,41.66,4.71,41.66"/><line class="cls-1" x1="0.25" y1="110.7" x2="35.52" y2="111.4"/><polygon class="cls-1" points="213.33 185.17 122.47 155.24 122.47 0.25 213.33 30.18 213.33 185.17"/></g></g></svg>