<svg xmlns="http://www.w3.org/2000/svg" viewBox="0 0 304.8 159.65"><defs><style>.cls-1{fill:none;stroke:#000;stroke-linecap:round;stroke-linejoin:round;stroke-width:0.5px;}</style></defs><g id="Capa_2" data-name="Capa 2"><g id="Capa_3" data-name="Capa 3"><path class="cls-1" d="M273.66,90.17H209.88a9.61,9.61,0,0,1-9.61-9.61V24.34a9.61,9.61,0,0,1,9.61-9.61h79a9.6,9.6,0,0,1,9.6,9.61V67.19"/><line class="cls-1" x1="200.27" y1="22.78" x2="298.45" y2="22.78"/><circle class="cls-1" cx="206.16" cy="19.32" r="1.21"/><circle class="cls-1" cx="211.06" cy="19.32" r="1.21"/><circle class="cls-1" cx="215.95" cy="19.32" r="1.21"/><rect class="cls-1" x="0.25" y="45.43" width="147.45" height="113.3" rx="9.61"/><line class="cls-1" x1="0.25" y1="57.52" x2="147.7" y2="57.52"/><circle class="cls-1" cx="9.1" cy="52.32" r="1.81"/><circle class="cls-1" cx="16.45" cy="52.32" r="1.81"/><circle class="cls-1" cx="23.8" cy="52.32" r="1.81"/><rect class="cls-1" x="184.09" y="131.77" width="33.84" height="27.63" rx="3.28"/><path class="cls-1" d="M220,139.67V152a.64.64,0,0,0,.36.58l7.4,3.63a.64.64,0,0,0,.92-.58V136.17a.64.64,0,0,0-.92-.58l-7.39,3.5A.64.64,0,0,0,220,139.67Z"/><circle class="cls-1" cx="297.62" cy="74.07" r="6.93"/><path class="cls-1" d="M280.81,99.93a4.3,4.3,0,1,0,8.6,0"/><path class="cls-1" d="M291.14,71.6a8.8,8.8,0,0,0-5.56-1.72c-5.62,0-9.63,1.87-11,10.25-2,12.49.81,13.11-5.35,19.8H301.9s-4.28-3.75-5.26-11.69c-.27-2.13-.47-4.84-1-7.52"/><path class="cls-1" d="M175.59,10.38V6.29a2.07,2.07,0,0,0-2.08-2.07H160a2.06,2.06,0,0,1-1.46-.61L155.83.86a2.08,2.08,0,0,0-1.47-.61h-9.51a2.07,2.07,0,0,0-2.07,2.07V27.14a2.07,2.07,0,0,0,2.07,2.07h28.66c1.15,0,1.8-1.09,2.12-2.21"/><path class="cls-1" d="M142.78,27.14l4.54-15.39a1.91,1.91,0,0,1,1.83-1.37h29.62a1.92,1.92,0,0,1,1.81,2.55l-5,14.07"/><rect class="cls-1" x="52.51" y="91.11" width="42.4" height="28.47" rx="3.5"/><polyline class="cls-1" points="94.04 91.95 73.4 110.13 52.51 91.95"/><line class="cls-1" x1="53.15" y1="118.48" x2="66.21" y2="103.87"/><line class="cls-1" x1="80.5" y1="103.87" x2="94.04" y2="118.73"/></g></g></svg>