<svg xmlns="http://www.w3.org/2000/svg" viewBox="0 0 217.63 145.14"><defs><style>.cls-1{fill:none;stroke:#000;stroke-linecap:round;stroke-linejoin:round;stroke-width:0.5px;}.cls-2{fill:#fff;}</style></defs><g id="Capa_2" data-name="Capa 2"><g id="Capa_3" data-name="Capa 3"><rect class="cls-1" x="0.25" y="0.25" width="217.13" height="144.64" rx="9.61"/><line class="cls-1" x1="0.25" y1="18.06" x2="217.38" y2="18.06"/><circle class="cls-1" cx="14.56" cy="10.4" r="3.34"/><circle class="cls-1" cx="23.33" cy="10.4" r="3.34"/><circle class="cls-1" cx="32.1" cy="10.4" r="3.34"/><path class="cls-1" d="M23.33,31.35s-2.73,4.14-7.24,4.14c-4.21,0-7.17-4.14-7.17-4.14s2.8-4.14,7.17-4.14C20.68,27.21,23.33,31.35,23.33,31.35Z"/><circle class="cls-1" cx="16.12" cy="31.35" r="2.77"/><rect class="cls-1" x="43.6" y="65.7" width="93.47" height="13.35" rx="3.61"/><rect class="cls-1" x="43.6" y="45.47" width="74.75" height="13.35" rx="3.61"/><rect class="cls-1" x="182.24" y="26.02" width="30.1" height="20.51" rx="2.3"/><rect class="cls-1" x="182.24" y="52.14" width="30.1" height="20.51" rx="2.3"/><rect class="cls-1" x="182.24" y="78.26" width="30.1" height="20.51" rx="2.3"/><rect class="cls-1" x="64.12" y="89.22" width="58.06" height="31.61" rx="2.3"/><rect class="cls-1" x="10.65" y="47.27" width="9.81" height="9.32" rx="2.3"/><rect class="cls-1" x="10.65" y="65.9" width="9.81" height="9.32" rx="2.3"/><rect class="cls-1" x="10.65" y="84.53" width="9.81" height="9.32" rx="2.3"/><rect class="cls-1" x="10.65" y="103.16" width="9.81" height="9.32" rx="2.3"/><path class="cls-2" d="M133.29,125.87a.55.55,0,0,1-.43-.2l-4.84-6a1,1,0,0,0-.81-.39,1,1,0,0,0-.84.43l-3.48,4.79a.54.54,0,0,1-.44.23.55.55,0,0,1-.54-.45l-3.3-18.47a.5.5,0,0,1,.12-.44.53.53,0,0,1,.42-.2.57.57,0,0,1,.22,0l16.91,7.4a.53.53,0,0,1,.33.5.55.55,0,0,1-.33.5l-5,2.13a1,1,0,0,0-.61.71,1,1,0,0,0,.21.9l4.82,6a.5.5,0,0,1,.12.4.49.49,0,0,1-.2.37l-2,1.64a.54.54,0,0,1-.34.12Z"/><path d="M119.15,105.46l.12,0,16.91,7.4a.29.29,0,0,1,0,.54l-5,2.13a1.28,1.28,0,0,0-.75.88,1.3,1.3,0,0,0,.25,1.12l4.83,6a.3.3,0,0,1,0,.41l-2,1.65a.31.31,0,0,1-.18.06.31.31,0,0,1-.23-.1l-4.84-6a1.31,1.31,0,0,0-1-.48,1.28,1.28,0,0,0-1,.54l-3.48,4.78a.31.31,0,0,1-.24.13.3.3,0,0,1-.29-.25l-3.3-18.46a.27.27,0,0,1,.06-.24.3.3,0,0,1,.23-.11m0-.5a.79.79,0,0,0-.78.93l3.29,18.47a.8.8,0,0,0,.79.66.79.79,0,0,0,.64-.33l3.48-4.79a.79.79,0,0,1,1.26,0l4.84,6a.78.78,0,0,0,.62.29.8.8,0,0,0,.5-.17l2-1.65a.79.79,0,0,0,.12-1.11l-4.83-6a.79.79,0,0,1,.31-1.23l5-2.13a.8.8,0,0,0,0-1.46L119.47,105a.77.77,0,0,0-.32-.07Z"/><rect class="cls-1" x="31.06" y="31.35" width="144.9" height="98.54" rx="9.61"/></g></g></svg>