<svg xmlns="http://www.w3.org/2000/svg" viewBox="0 0 214.91 188.95"><defs><style>.cls-1{fill:none;stroke:#000;stroke-linecap:round;stroke-linejoin:round;stroke-width:0.5px;}</style></defs><g id="Capa_2" data-name="Capa 2"><g id="Capa_1-2" data-name="Capa 1"><path class="cls-1" d="M93.49,21.39c16.62,1.25,31.91,8.6,42.08,21.83,20.79,27.05,12.3,68.45-18.95,92.46C91.5,155,59.31,157.19,36.85,143.26"/><path class="cls-1" d="M43.33,36.24A80.89,80.89,0,0,1,63.48,25.6"/><path class="cls-1" d="M11.92,102.25C9.71,85.39,14.36,68.62,25.8,53.39"/><path class="cls-1" d="M26.35,54.68s-6.07-14-6-16.39,1-6.84,6-6.94S40,32.89,47.08,47.84c1.08,2.28,2.06-2.17,2-3.36S40.78,31.24,35.25,29.94,23.6,31.23,22.52,32.75"/><path class="cls-1" d="M44.56,49c-1.3-2.82-9.2-15.12-16-14.36s-3.25,10.2,0,17.91c0,0,1.95-3.79,11.73-3.73"/><path class="cls-1" d="M87.56,99.37a3.76,3.76,0,0,0,3.81-1.55c1-1.42,6.78-10.85,6.2-15.37S93.34,63.14,83.3,66.12c-3.49,1-6.78,4.19-6.52,5.23s.38,2.77,2.51,3,3.43-3.61,5.23-3.42,6.85,4.2,7.3,11S86,94.2,86.07,95.3A19.43,19.43,0,0,0,87.56,99.37Z"/><path class="cls-1" d="M81.1,75.48s5.84,11.11,6.09,15"/><path class="cls-1" d="M72.83,35.89c-10,6-20.51,14.77-18.34,19.41.87,1.83,7.49,8.47,10.24,8.58s13.51-9.47,19.41-13.1,19.89-10.57,18.79-13a17.72,17.72,0,0,0-10.46-8.18"/><path class="cls-1" d="M57.78,59.18c9-9.89,30.12-21.55,35.13-20.84,2.32.33,6.35,3.51,6.35,3.51"/><path class="cls-1" d="M150.28,43.13c-1-6.05-5.14-13.61-12.05-11.78-8.7,2.31-1.31,17,4.55,19.41S162.27,47,161.35,40s-4.62-4-2.24-5.94,4.94-3.93,1.78-6.39-10.41,3.93-8.56,7.86.65,7.47-4,8.17-8.68-6.25-6.52-7.63.69,2.26.69,2.26"/><path class="cls-1" d="M142.8,55.84a15.54,15.54,0,0,0,6.06-4.74"/><path class="cls-1" d="M69.84,152.2s3.89,16.43,7.86,18,11.15,2.14,13-.84,5.2-22.1,5.2-22.1"/><path class="cls-1" d="M119,133.82s7.78,6.09,11.21,5.48,9.09-4,9.7-8.17-4.47-15.76-4.47-15.76"/><ellipse class="cls-1" cx="18.34" cy="126.82" rx="14.03" ry="23.41" transform="translate(-73.48 37.44) rotate(-37.54)"/><path class="cls-1" d="M4.08,108.26l10-6.51c6.15-4.72,17.51-.24,25.39,10s9.28,22.39,3.14,27.12l-10,6.51"/><path class="cls-1" d="M35.53,69.82c1,0,2.63-2.12,2.29-3s-9.23-7-13.19-4.17,1.13,4.76,4,4.59S33.32,69.73,35.53,69.82Z"/><path class="cls-1" d="M53.7,82.6c.06.91,5,3.53,5.86,5.48s3.57,6.88,5.27,6.71,3-2.68,1.27-6.09-7.47-9.62-9.34-8.94S53.62,81.19,53.7,82.6Z"/><ellipse class="cls-1" cx="20.58" cy="84.34" rx="4.5" ry="4.25"/><ellipse class="cls-1" cx="48.66" cy="104.12" rx="4.5" ry="4.25"/><path class="cls-1" d="M21,123.67c.55-.28,6.3,6.79,5.64,11s-2.45,5.46-4.71,4.8S21,123.67,21,123.67Z"/><path class="cls-1" d="M10.89,115.85c2.36.79,1.51,15.45,1,16.49s-5.8-9-5.19-13.1C7.4,114.91,9.48,115.38,10.89,115.85Z"/><ellipse class="cls-1" cx="195.7" cy="140.65" rx="18.96" ry="13.76"/><path class="cls-1" d="M214.66,147.29c0,7.6-8.49,13.77-19,13.77s-19-6.17-19-13.77"/><path class="cls-1" d="M214.66,154.17c0,7.61-8.49,13.77-19,13.77s-19-6.16-19-13.77"/><path class="cls-1" d="M176.74,140.65v19.42c0,7.6,8.49,13.76,19,13.76s19-6.16,19-13.76V140.65"/><path class="cls-1" d="M179.11,140.65c0-6.65,7.43-12,16.59-12s16.59,5.39,16.59,12"/><path class="cls-1" d="M188.63,133.65a21.35,21.35,0,0,0-2.31,2.14c-.14.16-3.1-1.33-3.24-1.16s-1.35,1.69-1.57,2,3.29,1.1,3.12,1.4c-1.24,2.14-1.37,4.52,2.73,5.76,8,2.42,9.11-5.64,13.6-4.07s2.76,4.37-1.14,6.7l1.31,2a18.56,18.56,0,0,0,4.09-3.54c.34-.42,2.93,1.73,2.91,1.21,0-.25,1.4-1.88,1.39-2.29a19.91,19.91,0,0,1-3-1.23c.38-1.35,0-2.75-1.66-4-6.74-4.88-11,3.94-15.24,3.32-2.54-.37-4.38-3.54,1.09-6.93Z"/><ellipse class="cls-1" cx="158.45" cy="161.54" rx="18.96" ry="13.76"/><path class="cls-1" d="M177.41,168.18c0,7.6-8.49,13.76-19,13.76s-19-6.16-19-13.76"/><path class="cls-1" d="M139.49,161.89v13c0,7.6,8.49,13.77,19,13.77s19-6.17,19-13.77v-13"/><path class="cls-1" d="M141.86,161.54c0-6.65,7.43-12,16.59-12s16.59,5.4,16.59,12"/><path class="cls-1" d="M151.38,154.54a21.35,21.35,0,0,0-2.31,2.14c-.14.15-3.1-1.33-3.24-1.17s-1.35,1.69-1.57,2,3.29,1.11,3.12,1.4c-1.24,2.14-1.37,4.53,2.73,5.77,8,2.41,9.11-5.64,13.6-4.07s2.76,4.36-1.14,6.69l1.31,2a18.68,18.68,0,0,0,4.09-3.53c.34-.42,2.93,1.72,2.9,1.2,0-.24,1.41-1.88,1.4-2.29a20.46,20.46,0,0,1-3-1.23c.39-1.34.06-2.74-1.65-4-6.74-4.87-11,3.94-15.24,3.33-2.54-.37-4.38-3.54,1.09-6.93Z"/><ellipse class="cls-1" cx="78.68" cy="18.37" rx="13.76" ry="18.96" transform="translate(-0.28 35.49) rotate(-25.37)"/><path class="cls-1" d="M70.56,1.24l-1.83.87c-6.87,3.26-9.73,14-5.25,23.49S77.29,40,84.16,36.75L86.8,35.5"/><path class="cls-1" d="M71.57,3.38c6-2.85,14.07,1.55,18,9.83s2.23,17.3-3.78,20.15"/><path class="cls-1" d="M82,9a22.31,22.31,0,0,0-2.92-1.17c-.21-.06-.13-3.37-.35-3.43s-2.1-.49-2.46-.56.41,3.45.07,3.42c-2.47-.2-4.67.7-4,4.93,1.23,8.24,9,5.82,9.51,10.55S79,27.08,75.24,24.56l-1.19,2A18.43,18.43,0,0,0,79,28.76c.53.13-.3,3.39.16,3.14.21-.12,2.3.46,2.67.28a20.51,20.51,0,0,1-.18-3.24c1.38-.24,2.5-1.12,2.89-3.2,1.52-8.18-8.27-8.23-9.54-12.35-.75-2.45,1.32-5.47,6.73-2Z"/></g></g></svg>